<svg id="Layer_1" data-name="Layer 1" xmlns="http://www.w3.org/2000/svg" xmlns:xlink="http://www.w3.org/1999/xlink" viewBox="0 0 235 33.17"><defs><style>.cls-1{fill:none;}.cls-2{clip-path:url(#clip-path);}.cls-3{fill:#231f20;}</style><clipPath id="clip-path"><rect class="cls-1" width="235" height="33.17"/></clipPath></defs><title>logo</title><g class="cls-2"><path class="cls-3" d="M229.9,29.62c-2.18,0-4.17-.06-6-.17l-.24-10c0-.78,0-1.34,0-1.66l4.75,0c2.1,0,3.6,0,4.49.09l1.53-3.09H223.75L224,3.54l9.17.18L234.74.63h-16l.09,15.49-.22,16.46,14.87.13L235,29.4c-2,.15-3.68.22-5.1.22M197.68,2.78c.34,0,1,0,1.92,0a6.73,6.73,0,0,1,5.11,2,7,7,0,0,1,1.9,5,5.82,5.82,0,0,1-2.78,5.31,4.73,4.73,0,0,1-2.39-.65l-3.76,2.36Zm.17,29.8-.21-14.66,11.28,15.2,4.45-2.65q-3.28-3.93-10.62-13.8a15.48,15.48,0,0,0,6.48-3.62,7.65,7.65,0,0,0,2-5.48,6.66,6.66,0,0,0-2.5-5.49,10.86,10.86,0,0,0-7-2L192.49.5l.22,24.9v7.48c1.39-.14,3.1-.25,5.14-.3m-33.76-2.17A8.83,8.83,0,0,0,171,33.17a8.22,8.22,0,0,0,4.17-1A35.71,35.71,0,0,0,179.63,29v.63l-.08,3.09,5.09-.18q-.25-2.49-.26-15.23L184.51.42l-5,.21.18,18.51a33.75,33.75,0,0,1-.81,8.56A6.79,6.79,0,0,1,174,29.45a7.6,7.6,0,0,1-5.19-1.63,6.66,6.66,0,0,1-2-4.89q-.14-3.27-.14-14l.09-8.51c-2.21.21-3.91.31-5.1.31V22.77c0,3.26.82,5.8,2.46,7.64M142.44,3.46l-.17,29.29c2-.17,3.75-.26,5.23-.26l-.18-26.67c0-1.15,0-2,.05-2.45L154,3.5l2.3-3L152.7.59,136.08.46l-2.1,3ZM116.26,19.1l3.89-11.49,4.49,11.49Zm-7.79,13.74,3.46-.26L115.28,22h10.63l3.85,11.16a38.82,38.82,0,0,1,5.14-1L122.36,0A14.06,14.06,0,0,1,120,.7a19.4,19.4,0,0,0-2.55.7l1.2,2.69q0,1.08-10.13,28.75m-26.12-.13,3.13-.22L85.26,9.65V8.2l17.15,24.88,2.85-.9a94.5,94.5,0,0,1-.51-12.38l.18-17.37V.55h-.4A23.31,23.31,0,0,0,102,.68v23L85.48.09,80.64,1.84,82.7,4.53Zm-27.95,0,5.42-.31c-.1-2.24-.15-5.68-.15-10.3,0-1.25,0-2.18.06-2.78l8.1-19c-1.2.12-2.11.17-2.74.17h-.26A151.91,151.91,0,0,1,58.38,16L51.53,0a30.56,30.56,0,0,1-5.3.86l8.43,18.55q.14.3-.26,13.3M28.85,19.1,32.74,7.61,37.22,19.1ZM21.06,32.84l3.45-.26L27.86,22H38.49l3.85,11.16a39.14,39.14,0,0,1,5.14-1L35,0a14.28,14.28,0,0,1-2.42.7A19.89,19.89,0,0,0,30,1.4l1.21,2.69q0,1.08-10.13,28.75M12.24,19.63a5.75,5.75,0,0,1,2.51,4.79,7.29,7.29,0,0,1-1.57,4.64c-1,1.32-1.77,2-2.2,2a16.68,16.68,0,0,1-5.69-1l.14-12.15a10.73,10.73,0,0,1,6.81,1.76m-6.81-2.5.13-13.8,2.23-.14a7,7,0,0,1,4.89,1.59,5.79,5.79,0,0,1,1.74,4.5,6.7,6.7,0,0,1-3.22,6.06,11.08,11.08,0,0,0-2.69-.42H7.88ZM19.27,7.85A6.86,6.86,0,0,0,17,2.69,8,8,0,0,0,11.25.55H.31l.13,14L0,32.62l8.25.22a12.73,12.73,0,0,0,8.33-2.7,8.07,8.07,0,0,0,3.31-6.43q0-5.64-6.76-7.81,6.13-3.12,6.14-8"/></g></svg>